<mxfile host="app.diagrams.net" agent="Mozilla/5.0 (Windows NT 10.0; Win64; x64) AppleWebKit/537.36 (KHTML, like Gecko) Chrome/128.0.0.0 Safari/537.36 OPR/114.0.0.0" version="24.8.0">
  <diagram id="C5RBs43oDa-KdzZeNtuy" name="Page-1">
    <mxGraphModel grid="1" page="1" gridSize="10" guides="1" tooltips="1" connect="1" arrows="1" fold="1" pageScale="1" pageWidth="827" pageHeight="1169" math="0" shadow="0">
      <root>
        <mxCell id="WIyWlLk6GJQsqaUBKTNV-0" />
        <mxCell id="WIyWlLk6GJQsqaUBKTNV-1" parent="WIyWlLk6GJQsqaUBKTNV-0" />
        <mxCell id="DAk2LymFE52niI233r9b-0" value="User" style="swimlane;fontStyle=1;align=center;verticalAlign=top;childLayout=stackLayout;horizontal=1;startSize=26;horizontalStack=0;resizeParent=1;resizeParentMax=0;resizeLast=0;collapsible=1;marginBottom=0;whiteSpace=wrap;html=1;" vertex="1" parent="WIyWlLk6GJQsqaUBKTNV-1">
          <mxGeometry x="290" y="80" width="180" height="208" as="geometry" />
        </mxCell>
        <mxCell id="DAk2LymFE52niI233r9b-1" value="# ID: string&lt;div&gt;# name: string&lt;/div&gt;&lt;div&gt;# address: string&lt;/div&gt;&lt;div&gt;# email: string&lt;/div&gt;&lt;div&gt;# phone number: string&lt;/div&gt;&lt;div&gt;# gender: string&lt;/div&gt;&lt;div&gt;# role: Role&lt;/div&gt;" style="text;strokeColor=none;fillColor=none;align=left;verticalAlign=top;spacingLeft=4;spacingRight=4;overflow=hidden;rotatable=0;points=[[0,0.5],[1,0.5]];portConstraint=eastwest;whiteSpace=wrap;html=1;" vertex="1" parent="DAk2LymFE52niI233r9b-0">
          <mxGeometry y="26" width="180" height="104" as="geometry" />
        </mxCell>
        <mxCell id="DAk2LymFE52niI233r9b-2" value="" style="line;strokeWidth=1;fillColor=none;align=left;verticalAlign=middle;spacingTop=-1;spacingLeft=3;spacingRight=3;rotatable=0;labelPosition=right;points=[];portConstraint=eastwest;strokeColor=inherit;" vertex="1" parent="DAk2LymFE52niI233r9b-0">
          <mxGeometry y="130" width="180" height="8" as="geometry" />
        </mxCell>
        <mxCell id="DAk2LymFE52niI233r9b-3" value="+ createUser(User): void&lt;div&gt;+ removeUser(User): void&lt;br&gt;&lt;div&gt;+ getUserInfo(String ID): User&amp;nbsp;&amp;nbsp;&lt;/div&gt;&lt;div&gt;+ updateUserInfo(User): void&lt;/div&gt;&lt;/div&gt;" style="text;strokeColor=none;fillColor=none;align=left;verticalAlign=top;spacingLeft=4;spacingRight=4;overflow=hidden;rotatable=0;points=[[0,0.5],[1,0.5]];portConstraint=eastwest;whiteSpace=wrap;html=1;" vertex="1" parent="DAk2LymFE52niI233r9b-0">
          <mxGeometry y="138" width="180" height="70" as="geometry" />
        </mxCell>
        <mxCell id="DAk2LymFE52niI233r9b-67" style="edgeStyle=orthogonalEdgeStyle;rounded=0;orthogonalLoop=1;jettySize=auto;html=1;exitX=-0.002;exitY=0.167;exitDx=0;exitDy=0;endArrow=block;endFill=0;exitPerimeter=0;" edge="1" parent="WIyWlLk6GJQsqaUBKTNV-1" source="DAk2LymFE52niI233r9b-8" target="DAk2LymFE52niI233r9b-1">
          <mxGeometry relative="1" as="geometry">
            <mxPoint x="630" y="197.00000000000023" as="sourcePoint" />
            <mxPoint x="470" y="177.0344827586207" as="targetPoint" />
            <Array as="points">
              <mxPoint x="600" y="180" />
            </Array>
          </mxGeometry>
        </mxCell>
        <mxCell id="DAk2LymFE52niI233r9b-8" value="Student" style="swimlane;fontStyle=1;align=center;verticalAlign=top;childLayout=stackLayout;horizontal=1;startSize=26;horizontalStack=0;resizeParent=1;resizeParentMax=0;resizeLast=0;collapsible=1;marginBottom=0;whiteSpace=wrap;html=1;" vertex="1" parent="WIyWlLk6GJQsqaUBKTNV-1">
          <mxGeometry x="600" y="160" width="160" height="90" as="geometry" />
        </mxCell>
        <mxCell id="DAk2LymFE52niI233r9b-9" value="+ page_No: integer" style="text;strokeColor=none;fillColor=none;align=left;verticalAlign=top;spacingLeft=4;spacingRight=4;overflow=hidden;rotatable=0;points=[[0,0.5],[1,0.5]];portConstraint=eastwest;whiteSpace=wrap;html=1;" vertex="1" parent="DAk2LymFE52niI233r9b-8">
          <mxGeometry y="26" width="160" height="24" as="geometry" />
        </mxCell>
        <mxCell id="DAk2LymFE52niI233r9b-10" value="" style="line;strokeWidth=1;fillColor=none;align=left;verticalAlign=middle;spacingTop=-1;spacingLeft=3;spacingRight=3;rotatable=0;labelPosition=right;points=[];portConstraint=eastwest;strokeColor=inherit;" vertex="1" parent="DAk2LymFE52niI233r9b-8">
          <mxGeometry y="50" width="160" height="10" as="geometry" />
        </mxCell>
        <mxCell id="ZyveVDl4BLU-jRACfWT4-10" value="+ getPage(): integer" style="text;strokeColor=none;fillColor=none;align=left;verticalAlign=top;spacingLeft=4;spacingRight=4;overflow=hidden;rotatable=0;points=[[0,0.5],[1,0.5]];portConstraint=eastwest;whiteSpace=wrap;html=1;" vertex="1" parent="DAk2LymFE52niI233r9b-8">
          <mxGeometry y="60" width="160" height="30" as="geometry" />
        </mxCell>
        <mxCell id="DAk2LymFE52niI233r9b-66" style="edgeStyle=orthogonalEdgeStyle;rounded=0;orthogonalLoop=1;jettySize=auto;html=1;exitX=1;exitY=0.5;exitDx=0;exitDy=0;endArrow=block;endFill=0;entryX=0.003;entryY=0.718;entryDx=0;entryDy=0;entryPerimeter=0;" edge="1" parent="WIyWlLk6GJQsqaUBKTNV-1" target="DAk2LymFE52niI233r9b-1">
          <mxGeometry relative="1" as="geometry">
            <mxPoint x="120" y="180" as="sourcePoint" />
            <mxPoint x="280" y="180" as="targetPoint" />
          </mxGeometry>
        </mxCell>
        <mxCell id="DAk2LymFE52niI233r9b-12" value="SPSO" style="swimlane;fontStyle=1;align=center;verticalAlign=top;childLayout=stackLayout;horizontal=1;startSize=30;horizontalStack=0;resizeParent=1;resizeParentMax=0;resizeLast=0;collapsible=1;marginBottom=0;whiteSpace=wrap;html=1;" vertex="1" parent="WIyWlLk6GJQsqaUBKTNV-1">
          <mxGeometry x="-40" y="160" width="160" height="54" as="geometry">
            <mxRectangle x="-20" y="196" width="70" height="30" as="alternateBounds" />
          </mxGeometry>
        </mxCell>
        <mxCell id="DAk2LymFE52niI233r9b-14" value="" style="line;strokeWidth=1;fillColor=none;align=left;verticalAlign=middle;spacingTop=-1;spacingLeft=3;spacingRight=3;rotatable=0;labelPosition=right;points=[];portConstraint=eastwest;strokeColor=inherit;" vertex="1" parent="DAk2LymFE52niI233r9b-12">
          <mxGeometry y="30" width="160" height="24" as="geometry" />
        </mxCell>
        <mxCell id="uwkByYollk92JQCde-ek-0" style="edgeStyle=orthogonalEdgeStyle;rounded=0;orthogonalLoop=1;jettySize=auto;html=1;exitX=0.5;exitY=0;exitDx=0;exitDy=0;endArrow=none;endFill=0;" edge="1" parent="WIyWlLk6GJQsqaUBKTNV-1" source="DAk2LymFE52niI233r9b-20" target="DAk2LymFE52niI233r9b-8">
          <mxGeometry relative="1" as="geometry" />
        </mxCell>
        <mxCell id="uwkByYollk92JQCde-ek-10" style="edgeStyle=orthogonalEdgeStyle;rounded=0;orthogonalLoop=1;jettySize=auto;html=1;exitX=1.009;exitY=0.082;exitDx=0;exitDy=0;endArrow=none;endFill=0;exitPerimeter=0;" edge="1" parent="WIyWlLk6GJQsqaUBKTNV-1">
          <mxGeometry relative="1" as="geometry">
            <mxPoint x="760" y="340.0499999999999" as="sourcePoint" />
            <mxPoint x="928.56" y="340.21" as="targetPoint" />
            <Array as="points" />
          </mxGeometry>
        </mxCell>
        <mxCell id="DAk2LymFE52niI233r9b-20" value="Student Controller" style="swimlane;fontStyle=1;align=center;verticalAlign=top;childLayout=stackLayout;horizontal=1;startSize=26;horizontalStack=0;resizeParent=1;resizeParentMax=0;resizeLast=0;collapsible=1;marginBottom=0;whiteSpace=wrap;html=1;" vertex="1" parent="WIyWlLk6GJQsqaUBKTNV-1">
          <mxGeometry x="600" y="320" width="160" height="100" as="geometry" />
        </mxCell>
        <mxCell id="DAk2LymFE52niI233r9b-22" value="" style="line;strokeWidth=1;fillColor=none;align=left;verticalAlign=middle;spacingTop=-1;spacingLeft=3;spacingRight=3;rotatable=0;labelPosition=right;points=[];portConstraint=eastwest;strokeColor=inherit;" vertex="1" parent="DAk2LymFE52niI233r9b-20">
          <mxGeometry y="26" width="160" height="8" as="geometry" />
        </mxCell>
        <mxCell id="DAk2LymFE52niI233r9b-23" value="&lt;div&gt;+ print(): void&lt;/div&gt;&lt;div&gt;+ purchase(): void&lt;/div&gt;&lt;div&gt;+ login(): void&lt;/div&gt;&lt;div&gt;+ logout(): void&lt;/div&gt;" style="text;strokeColor=none;fillColor=none;align=left;verticalAlign=top;spacingLeft=4;spacingRight=4;overflow=hidden;rotatable=0;points=[[0,0.5],[1,0.5]];portConstraint=eastwest;whiteSpace=wrap;html=1;" vertex="1" parent="DAk2LymFE52niI233r9b-20">
          <mxGeometry y="34" width="160" height="66" as="geometry" />
        </mxCell>
        <mxCell id="uwkByYollk92JQCde-ek-1" style="edgeStyle=orthogonalEdgeStyle;rounded=0;orthogonalLoop=1;jettySize=auto;html=1;exitX=0.5;exitY=0;exitDx=0;exitDy=0;endArrow=none;endFill=0;" edge="1" parent="WIyWlLk6GJQsqaUBKTNV-1" source="DAk2LymFE52niI233r9b-24" target="DAk2LymFE52niI233r9b-12">
          <mxGeometry relative="1" as="geometry" />
        </mxCell>
        <mxCell id="uwkByYollk92JQCde-ek-11" style="edgeStyle=orthogonalEdgeStyle;rounded=0;orthogonalLoop=1;jettySize=auto;html=1;exitX=0;exitY=0.5;exitDx=0;exitDy=0;endArrow=none;endFill=0;" edge="1" parent="WIyWlLk6GJQsqaUBKTNV-1" source="DAk2LymFE52niI233r9b-24" target="uwkByYollk92JQCde-ek-6">
          <mxGeometry relative="1" as="geometry">
            <Array as="points">
              <mxPoint x="-40" y="340" />
              <mxPoint x="-310" y="340" />
            </Array>
          </mxGeometry>
        </mxCell>
        <mxCell id="DAk2LymFE52niI233r9b-24" value="SPSO controller" style="swimlane;fontStyle=1;align=center;verticalAlign=top;childLayout=stackLayout;horizontal=1;startSize=26;horizontalStack=0;resizeParent=1;resizeParentMax=0;resizeLast=0;collapsible=1;marginBottom=0;whiteSpace=wrap;html=1;" vertex="1" parent="WIyWlLk6GJQsqaUBKTNV-1">
          <mxGeometry x="-40" y="320" width="160" height="100" as="geometry" />
        </mxCell>
        <mxCell id="DAk2LymFE52niI233r9b-26" value="" style="line;strokeWidth=1;fillColor=none;align=left;verticalAlign=middle;spacingTop=-1;spacingLeft=3;spacingRight=3;rotatable=0;labelPosition=right;points=[];portConstraint=eastwest;strokeColor=inherit;" vertex="1" parent="DAk2LymFE52niI233r9b-24">
          <mxGeometry y="26" width="160" height="8" as="geometry" />
        </mxCell>
        <mxCell id="DAk2LymFE52niI233r9b-27" value="&lt;div&gt;+ managePrinter(): void&lt;/div&gt;&lt;div&gt;+ config(): void&lt;/div&gt;&lt;div&gt;+ login(): void&lt;/div&gt;&lt;div&gt;+ logout(): void&lt;/div&gt;" style="text;strokeColor=none;fillColor=none;align=left;verticalAlign=top;spacingLeft=4;spacingRight=4;overflow=hidden;rotatable=0;points=[[0,0.5],[1,0.5]];portConstraint=eastwest;whiteSpace=wrap;html=1;" vertex="1" parent="DAk2LymFE52niI233r9b-24">
          <mxGeometry y="34" width="160" height="66" as="geometry" />
        </mxCell>
        <mxCell id="N-Cw9iXqyluHti3zevqQ-43" style="edgeStyle=orthogonalEdgeStyle;rounded=0;orthogonalLoop=1;jettySize=auto;html=1;exitX=0.5;exitY=0;exitDx=0;exitDy=0;endArrow=none;endFill=0;" edge="1" parent="WIyWlLk6GJQsqaUBKTNV-1" source="DAk2LymFE52niI233r9b-36" target="DAk2LymFE52niI233r9b-20">
          <mxGeometry relative="1" as="geometry" />
        </mxCell>
        <mxCell id="N-Cw9iXqyluHti3zevqQ-57" style="edgeStyle=orthogonalEdgeStyle;rounded=0;orthogonalLoop=1;jettySize=auto;html=1;exitX=0.254;exitY=1.002;exitDx=0;exitDy=0;dashed=1;endArrow=open;endFill=0;exitPerimeter=0;" edge="1" parent="WIyWlLk6GJQsqaUBKTNV-1" source="DAk2LymFE52niI233r9b-39" target="N-Cw9iXqyluHti3zevqQ-15">
          <mxGeometry relative="1" as="geometry">
            <Array as="points">
              <mxPoint x="681" y="1350" />
              <mxPoint x="380" y="1350" />
            </Array>
          </mxGeometry>
        </mxCell>
        <mxCell id="N-Cw9iXqyluHti3zevqQ-58" value="Use" style="edgeLabel;html=1;align=center;verticalAlign=middle;resizable=0;points=[];" connectable="0" vertex="1" parent="N-Cw9iXqyluHti3zevqQ-57">
          <mxGeometry x="0.2464" y="-1" relative="1" as="geometry">
            <mxPoint as="offset" />
          </mxGeometry>
        </mxCell>
        <mxCell id="N-Cw9iXqyluHti3zevqQ-71" style="edgeStyle=orthogonalEdgeStyle;rounded=0;orthogonalLoop=1;jettySize=auto;html=1;exitX=0.5;exitY=1;exitDx=0;exitDy=0;dashed=1;endArrow=open;endFill=0;" edge="1" parent="WIyWlLk6GJQsqaUBKTNV-1" source="DAk2LymFE52niI233r9b-36" target="N-Cw9iXqyluHti3zevqQ-52">
          <mxGeometry relative="1" as="geometry">
            <Array as="points">
              <mxPoint x="720" y="1660" />
              <mxPoint x="370" y="1660" />
            </Array>
          </mxGeometry>
        </mxCell>
        <mxCell id="N-Cw9iXqyluHti3zevqQ-72" value="Use" style="edgeLabel;html=1;align=center;verticalAlign=middle;resizable=0;points=[];" connectable="0" vertex="1" parent="N-Cw9iXqyluHti3zevqQ-71">
          <mxGeometry x="0.3674" y="2" relative="1" as="geometry">
            <mxPoint as="offset" />
          </mxGeometry>
        </mxCell>
        <mxCell id="DAk2LymFE52niI233r9b-36" value="Student print Controller" style="swimlane;fontStyle=1;align=center;verticalAlign=top;childLayout=stackLayout;horizontal=1;startSize=26;horizontalStack=0;resizeParent=1;resizeParentMax=0;resizeLast=0;collapsible=1;marginBottom=0;whiteSpace=wrap;html=1;" vertex="1" parent="WIyWlLk6GJQsqaUBKTNV-1">
          <mxGeometry x="600" y="680" width="160" height="280" as="geometry" />
        </mxCell>
        <mxCell id="DAk2LymFE52niI233r9b-37" value="&lt;div&gt;- date: datetime&amp;nbsp;&lt;/div&gt;" style="text;strokeColor=none;fillColor=none;align=left;verticalAlign=top;spacingLeft=4;spacingRight=4;overflow=hidden;rotatable=0;points=[[0,0.5],[1,0.5]];portConstraint=eastwest;whiteSpace=wrap;html=1;" vertex="1" parent="DAk2LymFE52niI233r9b-36">
          <mxGeometry y="26" width="160" height="44" as="geometry" />
        </mxCell>
        <mxCell id="DAk2LymFE52niI233r9b-38" value="" style="line;strokeWidth=1;fillColor=none;align=left;verticalAlign=middle;spacingTop=-1;spacingLeft=3;spacingRight=3;rotatable=0;labelPosition=right;points=[];portConstraint=eastwest;strokeColor=inherit;" vertex="1" parent="DAk2LymFE52niI233r9b-36">
          <mxGeometry y="70" width="160" height="8" as="geometry" />
        </mxCell>
        <mxCell id="DAk2LymFE52niI233r9b-39" value="+ uploadDoc(): void&lt;div&gt;+ choosePrinter(): void&lt;/div&gt;&lt;div&gt;+ setupProperties(): void&lt;br&gt;&lt;div&gt;+ print(): void&lt;br&gt;&lt;div&gt;- getValidFileType(): bool&lt;div&gt;- getValidPrinter(): bool&lt;/div&gt;&lt;div&gt;- checkProperties(): bool&lt;/div&gt;&lt;div&gt;- checkAvailablePage(): bool&lt;/div&gt;&lt;div&gt;- updateNoPage(): void&lt;/div&gt;&lt;/div&gt;&lt;div&gt;- logActivity(): void&lt;/div&gt;&lt;/div&gt;&lt;/div&gt;" style="text;strokeColor=none;fillColor=none;align=left;verticalAlign=top;spacingLeft=4;spacingRight=4;overflow=hidden;rotatable=0;points=[[0,0.5],[1,0.5]];portConstraint=eastwest;whiteSpace=wrap;html=1;" vertex="1" parent="DAk2LymFE52niI233r9b-36">
          <mxGeometry y="78" width="160" height="202" as="geometry" />
        </mxCell>
        <mxCell id="N-Cw9iXqyluHti3zevqQ-44" style="edgeStyle=orthogonalEdgeStyle;rounded=0;orthogonalLoop=1;jettySize=auto;html=1;exitX=0.5;exitY=0;exitDx=0;exitDy=0;endArrow=none;endFill=0;" edge="1" parent="WIyWlLk6GJQsqaUBKTNV-1" source="DAk2LymFE52niI233r9b-40" target="DAk2LymFE52niI233r9b-20">
          <mxGeometry relative="1" as="geometry">
            <Array as="points">
              <mxPoint x="1380" y="560" />
              <mxPoint x="680" y="560" />
            </Array>
          </mxGeometry>
        </mxCell>
        <mxCell id="N-Cw9iXqyluHti3zevqQ-67" style="edgeStyle=orthogonalEdgeStyle;rounded=0;orthogonalLoop=1;jettySize=auto;html=1;dashed=1;endArrow=open;endFill=0;exitX=1.002;exitY=0.11;exitDx=0;exitDy=0;exitPerimeter=0;entryX=0;entryY=0.25;entryDx=0;entryDy=0;" edge="1" parent="WIyWlLk6GJQsqaUBKTNV-1" source="DAk2LymFE52niI233r9b-40" target="N-Cw9iXqyluHti3zevqQ-63">
          <mxGeometry relative="1" as="geometry">
            <Array as="points" />
            <mxPoint x="1524" y="700" as="sourcePoint" />
            <mxPoint x="1654" y="700" as="targetPoint" />
          </mxGeometry>
        </mxCell>
        <mxCell id="N-Cw9iXqyluHti3zevqQ-68" value="Use" style="edgeLabel;html=1;align=center;verticalAlign=middle;resizable=0;points=[];" connectable="0" vertex="1" parent="N-Cw9iXqyluHti3zevqQ-67">
          <mxGeometry x="-0.1792" y="-2" relative="1" as="geometry">
            <mxPoint as="offset" />
          </mxGeometry>
        </mxCell>
        <mxCell id="uwkByYollk92JQCde-ek-27" style="edgeStyle=orthogonalEdgeStyle;rounded=0;orthogonalLoop=1;jettySize=auto;html=1;exitX=0.5;exitY=1;exitDx=0;exitDy=0;endArrow=none;endFill=0;" edge="1" parent="WIyWlLk6GJQsqaUBKTNV-1" source="DAk2LymFE52niI233r9b-40" target="uwkByYollk92JQCde-ek-23">
          <mxGeometry relative="1" as="geometry" />
        </mxCell>
        <mxCell id="DAk2LymFE52niI233r9b-40" value="Student purchase Controller" style="swimlane;fontStyle=1;align=center;verticalAlign=top;childLayout=stackLayout;horizontal=1;startSize=38;horizontalStack=0;resizeParent=1;resizeParentMax=0;resizeLast=0;collapsible=1;marginBottom=0;whiteSpace=wrap;html=1;" vertex="1" parent="WIyWlLk6GJQsqaUBKTNV-1">
          <mxGeometry x="1280" y="682" width="200" height="158" as="geometry" />
        </mxCell>
        <mxCell id="DAk2LymFE52niI233r9b-41" value="&lt;div&gt;- date: datetime&lt;/div&gt;" style="text;strokeColor=none;fillColor=none;align=left;verticalAlign=top;spacingLeft=4;spacingRight=4;overflow=hidden;rotatable=0;points=[[0,0.5],[1,0.5]];portConstraint=eastwest;whiteSpace=wrap;html=1;" vertex="1" parent="DAk2LymFE52niI233r9b-40">
          <mxGeometry y="38" width="200" height="30" as="geometry" />
        </mxCell>
        <mxCell id="DAk2LymFE52niI233r9b-42" value="" style="line;strokeWidth=1;fillColor=none;align=left;verticalAlign=middle;spacingTop=-1;spacingLeft=3;spacingRight=3;rotatable=0;labelPosition=right;points=[];portConstraint=eastwest;strokeColor=inherit;" vertex="1" parent="DAk2LymFE52niI233r9b-40">
          <mxGeometry y="68" width="200" height="8" as="geometry" />
        </mxCell>
        <mxCell id="DAk2LymFE52niI233r9b-43" value="+ purchase(): void&lt;div&gt;&lt;div&gt;- createOrder(): void&lt;/div&gt;&lt;div&gt;- pay(): void&lt;br&gt;&lt;div&gt;- updateNoPage(): void&lt;/div&gt;&lt;/div&gt;&lt;/div&gt;" style="text;strokeColor=none;fillColor=none;align=left;verticalAlign=top;spacingLeft=4;spacingRight=4;overflow=hidden;rotatable=0;points=[[0,0.5],[1,0.5]];portConstraint=eastwest;whiteSpace=wrap;html=1;" vertex="1" parent="DAk2LymFE52niI233r9b-40">
          <mxGeometry y="76" width="200" height="82" as="geometry" />
        </mxCell>
        <mxCell id="DAk2LymFE52niI233r9b-44" value="SPSO Config" style="swimlane;fontStyle=1;align=center;verticalAlign=top;childLayout=stackLayout;horizontal=1;startSize=26;horizontalStack=0;resizeParent=1;resizeParentMax=0;resizeLast=0;collapsible=1;marginBottom=0;whiteSpace=wrap;html=1;" vertex="1" parent="WIyWlLk6GJQsqaUBKTNV-1">
          <mxGeometry x="-40" y="640" width="160" height="60" as="geometry" />
        </mxCell>
        <mxCell id="DAk2LymFE52niI233r9b-46" value="" style="line;strokeWidth=1;fillColor=none;align=left;verticalAlign=middle;spacingTop=-1;spacingLeft=3;spacingRight=3;rotatable=0;labelPosition=right;points=[];portConstraint=eastwest;strokeColor=inherit;" vertex="1" parent="DAk2LymFE52niI233r9b-44">
          <mxGeometry y="26" width="160" height="8" as="geometry" />
        </mxCell>
        <mxCell id="DAk2LymFE52niI233r9b-47" value="+ manageConfig(): void" style="text;strokeColor=none;fillColor=none;align=left;verticalAlign=top;spacingLeft=4;spacingRight=4;overflow=hidden;rotatable=0;points=[[0,0.5],[1,0.5]];portConstraint=eastwest;whiteSpace=wrap;html=1;" vertex="1" parent="DAk2LymFE52niI233r9b-44">
          <mxGeometry y="34" width="160" height="26" as="geometry" />
        </mxCell>
        <mxCell id="N-Cw9iXqyluHti3zevqQ-10" style="edgeStyle=orthogonalEdgeStyle;rounded=0;orthogonalLoop=1;jettySize=auto;html=1;exitX=0.5;exitY=0;exitDx=0;exitDy=0;endArrow=none;endFill=0;" edge="1" parent="WIyWlLk6GJQsqaUBKTNV-1" source="DAk2LymFE52niI233r9b-48" target="DAk2LymFE52niI233r9b-24">
          <mxGeometry relative="1" as="geometry">
            <Array as="points">
              <mxPoint x="-360" y="640" />
              <mxPoint x="-360" y="520" />
              <mxPoint x="40" y="520" />
            </Array>
          </mxGeometry>
        </mxCell>
        <mxCell id="DAk2LymFE52niI233r9b-48" value="SPSO Printer Management" style="swimlane;fontStyle=1;align=center;verticalAlign=top;childLayout=stackLayout;horizontal=1;startSize=26;horizontalStack=0;resizeParent=1;resizeParentMax=0;resizeLast=0;collapsible=1;marginBottom=0;whiteSpace=wrap;html=1;" vertex="1" parent="WIyWlLk6GJQsqaUBKTNV-1">
          <mxGeometry x="-440" y="640" width="160" height="200" as="geometry" />
        </mxCell>
        <mxCell id="DAk2LymFE52niI233r9b-49" value="- printerList[]: Printer" style="text;strokeColor=none;fillColor=none;align=left;verticalAlign=top;spacingLeft=4;spacingRight=4;overflow=hidden;rotatable=0;points=[[0,0.5],[1,0.5]];portConstraint=eastwest;whiteSpace=wrap;html=1;" vertex="1" parent="DAk2LymFE52niI233r9b-48">
          <mxGeometry y="26" width="160" height="26" as="geometry" />
        </mxCell>
        <mxCell id="DAk2LymFE52niI233r9b-50" value="" style="line;strokeWidth=1;fillColor=none;align=left;verticalAlign=middle;spacingTop=-1;spacingLeft=3;spacingRight=3;rotatable=0;labelPosition=right;points=[];portConstraint=eastwest;strokeColor=inherit;" vertex="1" parent="DAk2LymFE52niI233r9b-48">
          <mxGeometry y="52" width="160" height="8" as="geometry" />
        </mxCell>
        <mxCell id="DAk2LymFE52niI233r9b-51" value="+ add(in printer: Printer): void&lt;div&gt;+ enable(in printerID: string): void&lt;/div&gt;&lt;div&gt;+ disable(in printerID: string): void&lt;/div&gt;" style="text;strokeColor=none;fillColor=none;align=left;verticalAlign=top;spacingLeft=4;spacingRight=4;overflow=hidden;rotatable=0;points=[[0,0.5],[1,0.5]];portConstraint=eastwest;whiteSpace=wrap;html=1;" vertex="1" parent="DAk2LymFE52niI233r9b-48">
          <mxGeometry y="60" width="160" height="140" as="geometry" />
        </mxCell>
        <mxCell id="J2rnADVn6QwzF2GOBrfM-4" style="edgeStyle=orthogonalEdgeStyle;rounded=0;orthogonalLoop=1;jettySize=auto;html=1;exitX=0.5;exitY=1;exitDx=0;exitDy=0;entryX=0.5;entryY=0;entryDx=0;entryDy=0;endArrow=diamondThin;endFill=1;strokeWidth=2;" edge="1" parent="WIyWlLk6GJQsqaUBKTNV-1" source="J2rnADVn6QwzF2GOBrfM-0" target="DAk2LymFE52niI233r9b-0">
          <mxGeometry relative="1" as="geometry" />
        </mxCell>
        <mxCell id="J2rnADVn6QwzF2GOBrfM-0" value="Login" style="swimlane;fontStyle=1;align=center;verticalAlign=top;childLayout=stackLayout;horizontal=1;startSize=26;horizontalStack=0;resizeParent=1;resizeParentMax=0;resizeLast=0;collapsible=1;marginBottom=0;whiteSpace=wrap;html=1;" vertex="1" parent="WIyWlLk6GJQsqaUBKTNV-1">
          <mxGeometry x="300" y="-78" width="160" height="78" as="geometry" />
        </mxCell>
        <mxCell id="J2rnADVn6QwzF2GOBrfM-1" value="- username: string&lt;div&gt;- password: string&lt;/div&gt;" style="text;strokeColor=none;fillColor=none;align=left;verticalAlign=top;spacingLeft=4;spacingRight=4;overflow=hidden;rotatable=0;points=[[0,0.5],[1,0.5]];portConstraint=eastwest;whiteSpace=wrap;html=1;" vertex="1" parent="J2rnADVn6QwzF2GOBrfM-0">
          <mxGeometry y="26" width="160" height="44" as="geometry" />
        </mxCell>
        <mxCell id="J2rnADVn6QwzF2GOBrfM-2" value="" style="line;strokeWidth=1;fillColor=none;align=left;verticalAlign=middle;spacingTop=-1;spacingLeft=3;spacingRight=3;rotatable=0;labelPosition=right;points=[];portConstraint=eastwest;strokeColor=inherit;" vertex="1" parent="J2rnADVn6QwzF2GOBrfM-0">
          <mxGeometry y="70" width="160" height="8" as="geometry" />
        </mxCell>
        <mxCell id="N-Cw9iXqyluHti3zevqQ-0" value="Printer" style="swimlane;fontStyle=1;align=center;verticalAlign=top;childLayout=stackLayout;horizontal=1;startSize=26;horizontalStack=0;resizeParent=1;resizeParentMax=0;resizeLast=0;collapsible=1;marginBottom=0;whiteSpace=wrap;html=1;" vertex="1" parent="WIyWlLk6GJQsqaUBKTNV-1">
          <mxGeometry x="-190" y="1530" width="160" height="290" as="geometry" />
        </mxCell>
        <mxCell id="N-Cw9iXqyluHti3zevqQ-1" value="- ID: string&lt;div&gt;- brand: string&lt;/div&gt;&lt;div&gt;- model: string&lt;/div&gt;&lt;div&gt;- description: string&lt;/div&gt;&lt;div&gt;- campus: string&lt;/div&gt;&lt;div&gt;- building: string&lt;/div&gt;&lt;div&gt;- room: string&lt;/div&gt;&lt;div&gt;- status: PrinterState&lt;/div&gt;" style="text;strokeColor=none;fillColor=none;align=left;verticalAlign=top;spacingLeft=4;spacingRight=4;overflow=hidden;rotatable=0;points=[[0,0.5],[1,0.5]];portConstraint=eastwest;whiteSpace=wrap;html=1;" vertex="1" parent="N-Cw9iXqyluHti3zevqQ-0">
          <mxGeometry y="26" width="160" height="154" as="geometry" />
        </mxCell>
        <mxCell id="N-Cw9iXqyluHti3zevqQ-2" value="" style="line;strokeWidth=1;fillColor=none;align=left;verticalAlign=middle;spacingTop=-1;spacingLeft=3;spacingRight=3;rotatable=0;labelPosition=right;points=[];portConstraint=eastwest;strokeColor=inherit;" vertex="1" parent="N-Cw9iXqyluHti3zevqQ-0">
          <mxGeometry y="180" width="160" height="8" as="geometry" />
        </mxCell>
        <mxCell id="N-Cw9iXqyluHti3zevqQ-3" value="+ get(): set()&lt;div&gt;+ create(): void&lt;/div&gt;&lt;div&gt;+ remove(): void&lt;/div&gt;" style="text;strokeColor=none;fillColor=none;align=left;verticalAlign=top;spacingLeft=4;spacingRight=4;overflow=hidden;rotatable=0;points=[[0,0.5],[1,0.5]];portConstraint=eastwest;whiteSpace=wrap;html=1;" vertex="1" parent="N-Cw9iXqyluHti3zevqQ-0">
          <mxGeometry y="188" width="160" height="102" as="geometry" />
        </mxCell>
        <mxCell id="N-Cw9iXqyluHti3zevqQ-4" value="&lt;span style=&quot;font-weight: normal;&quot;&gt;&amp;lt;&amp;lt;enumeration&amp;gt;&amp;gt;&lt;/span&gt;&lt;div&gt;PrinterState&lt;/div&gt;" style="swimlane;fontStyle=1;align=center;verticalAlign=top;childLayout=stackLayout;horizontal=1;startSize=40;horizontalStack=0;resizeParent=1;resizeParentMax=0;resizeLast=0;collapsible=1;marginBottom=0;whiteSpace=wrap;html=1;" vertex="1" parent="WIyWlLk6GJQsqaUBKTNV-1">
          <mxGeometry x="-430" y="1380" width="160" height="88" as="geometry" />
        </mxCell>
        <mxCell id="N-Cw9iXqyluHti3zevqQ-5" value="Enabled&lt;div&gt;Disabled&lt;br&gt;&lt;div&gt;&lt;br&gt;&lt;/div&gt;&lt;/div&gt;" style="text;strokeColor=none;fillColor=none;align=left;verticalAlign=top;spacingLeft=4;spacingRight=4;overflow=hidden;rotatable=0;points=[[0,0.5],[1,0.5]];portConstraint=eastwest;whiteSpace=wrap;html=1;" vertex="1" parent="N-Cw9iXqyluHti3zevqQ-4">
          <mxGeometry y="40" width="160" height="40" as="geometry" />
        </mxCell>
        <mxCell id="N-Cw9iXqyluHti3zevqQ-6" value="" style="line;strokeWidth=1;fillColor=none;align=left;verticalAlign=middle;spacingTop=-1;spacingLeft=3;spacingRight=3;rotatable=0;labelPosition=right;points=[];portConstraint=eastwest;strokeColor=inherit;" vertex="1" parent="N-Cw9iXqyluHti3zevqQ-4">
          <mxGeometry y="80" width="160" height="8" as="geometry" />
        </mxCell>
        <mxCell id="N-Cw9iXqyluHti3zevqQ-15" value="Log" style="swimlane;fontStyle=1;align=center;verticalAlign=top;childLayout=stackLayout;horizontal=1;startSize=26;horizontalStack=0;resizeParent=1;resizeParentMax=0;resizeLast=0;collapsible=1;marginBottom=0;whiteSpace=wrap;html=1;" vertex="1" parent="WIyWlLk6GJQsqaUBKTNV-1">
          <mxGeometry x="300" y="1390" width="160" height="220" as="geometry" />
        </mxCell>
        <mxCell id="N-Cw9iXqyluHti3zevqQ-16" value="- studentID: string&lt;div&gt;- printerID: string&lt;/div&gt;&lt;div&gt;- filename: string&lt;/div&gt;&lt;div&gt;- startTime: datetime&lt;/div&gt;&lt;div&gt;- endTime: datetime&lt;/div&gt;&lt;div&gt;- pageSize: string&lt;/div&gt;&lt;div&gt;- noPage: integer&lt;/div&gt;" style="text;strokeColor=none;fillColor=none;align=left;verticalAlign=top;spacingLeft=4;spacingRight=4;overflow=hidden;rotatable=0;points=[[0,0.5],[1,0.5]];portConstraint=eastwest;whiteSpace=wrap;html=1;" vertex="1" parent="N-Cw9iXqyluHti3zevqQ-15">
          <mxGeometry y="26" width="160" height="124" as="geometry" />
        </mxCell>
        <mxCell id="N-Cw9iXqyluHti3zevqQ-17" value="" style="line;strokeWidth=1;fillColor=none;align=left;verticalAlign=middle;spacingTop=-1;spacingLeft=3;spacingRight=3;rotatable=0;labelPosition=right;points=[];portConstraint=eastwest;strokeColor=inherit;" vertex="1" parent="N-Cw9iXqyluHti3zevqQ-15">
          <mxGeometry y="150" width="160" height="8" as="geometry" />
        </mxCell>
        <mxCell id="N-Cw9iXqyluHti3zevqQ-18" value="+ create(): void&lt;div&gt;+ get()&lt;/div&gt;" style="text;strokeColor=none;fillColor=none;align=left;verticalAlign=top;spacingLeft=4;spacingRight=4;overflow=hidden;rotatable=0;points=[[0,0.5],[1,0.5]];portConstraint=eastwest;whiteSpace=wrap;html=1;" vertex="1" parent="N-Cw9iXqyluHti3zevqQ-15">
          <mxGeometry y="158" width="160" height="62" as="geometry" />
        </mxCell>
        <mxCell id="N-Cw9iXqyluHti3zevqQ-21" value="" style="text;strokeColor=none;fillColor=none;align=left;verticalAlign=middle;spacingTop=-1;spacingLeft=4;spacingRight=4;rotatable=0;labelPosition=right;points=[];portConstraint=eastwest;" vertex="1" parent="WIyWlLk6GJQsqaUBKTNV-1">
          <mxGeometry x="-230" y="1030" width="20" height="14" as="geometry" />
        </mxCell>
        <mxCell id="N-Cw9iXqyluHti3zevqQ-52" value="Configuration" style="swimlane;fontStyle=1;align=center;verticalAlign=top;childLayout=stackLayout;horizontal=1;startSize=26;horizontalStack=0;resizeParent=1;resizeParentMax=0;resizeLast=0;collapsible=1;marginBottom=0;whiteSpace=wrap;html=1;" vertex="1" parent="WIyWlLk6GJQsqaUBKTNV-1">
          <mxGeometry x="270" y="1720" width="160" height="160" as="geometry" />
        </mxCell>
        <mxCell id="N-Cw9iXqyluHti3zevqQ-53" value="- defaultNoPage: integer&lt;div&gt;- giveDate: string&lt;/div&gt;&lt;div&gt;- fileType[]: string&lt;/div&gt;" style="text;strokeColor=none;fillColor=none;align=left;verticalAlign=top;spacingLeft=4;spacingRight=4;overflow=hidden;rotatable=0;points=[[0,0.5],[1,0.5]];portConstraint=eastwest;whiteSpace=wrap;html=1;" vertex="1" parent="N-Cw9iXqyluHti3zevqQ-52">
          <mxGeometry y="26" width="160" height="74" as="geometry" />
        </mxCell>
        <mxCell id="N-Cw9iXqyluHti3zevqQ-54" value="" style="line;strokeWidth=1;fillColor=none;align=left;verticalAlign=middle;spacingTop=-1;spacingLeft=3;spacingRight=3;rotatable=0;labelPosition=right;points=[];portConstraint=eastwest;strokeColor=inherit;" vertex="1" parent="N-Cw9iXqyluHti3zevqQ-52">
          <mxGeometry y="100" width="160" height="8" as="geometry" />
        </mxCell>
        <mxCell id="N-Cw9iXqyluHti3zevqQ-55" value="+ get() set()&lt;div&gt;- checkValidInput()...&lt;/div&gt;&lt;div&gt;&lt;br&gt;&lt;/div&gt;" style="text;strokeColor=none;fillColor=none;align=left;verticalAlign=top;spacingLeft=4;spacingRight=4;overflow=hidden;rotatable=0;points=[[0,0.5],[1,0.5]];portConstraint=eastwest;whiteSpace=wrap;html=1;" vertex="1" parent="N-Cw9iXqyluHti3zevqQ-52">
          <mxGeometry y="108" width="160" height="52" as="geometry" />
        </mxCell>
        <mxCell id="N-Cw9iXqyluHti3zevqQ-63" value="BKPay" style="swimlane;fontStyle=1;align=center;verticalAlign=top;childLayout=stackLayout;horizontal=1;startSize=26;horizontalStack=0;resizeParent=1;resizeParentMax=0;resizeLast=0;collapsible=1;marginBottom=0;whiteSpace=wrap;html=1;" vertex="1" parent="WIyWlLk6GJQsqaUBKTNV-1">
          <mxGeometry x="1640" y="680" width="160" height="80" as="geometry" />
        </mxCell>
        <mxCell id="N-Cw9iXqyluHti3zevqQ-65" value="" style="line;strokeWidth=1;fillColor=none;align=left;verticalAlign=middle;spacingTop=-1;spacingLeft=3;spacingRight=3;rotatable=0;labelPosition=right;points=[];portConstraint=eastwest;strokeColor=inherit;" vertex="1" parent="N-Cw9iXqyluHti3zevqQ-63">
          <mxGeometry y="26" width="160" height="8" as="geometry" />
        </mxCell>
        <mxCell id="N-Cw9iXqyluHti3zevqQ-66" value="+ checkPurchase(): bool&lt;div&gt;&lt;br&gt;&lt;/div&gt;" style="text;strokeColor=none;fillColor=none;align=left;verticalAlign=top;spacingLeft=4;spacingRight=4;overflow=hidden;rotatable=0;points=[[0,0.5],[1,0.5]];portConstraint=eastwest;whiteSpace=wrap;html=1;" vertex="1" parent="N-Cw9iXqyluHti3zevqQ-63">
          <mxGeometry y="34" width="160" height="46" as="geometry" />
        </mxCell>
        <mxCell id="N-Cw9iXqyluHti3zevqQ-73" value="&lt;div&gt;&lt;span style=&quot;font-weight: normal;&quot;&gt;&amp;lt;&amp;lt;enumeration&amp;gt;&amp;gt;&lt;/span&gt;&lt;/div&gt;Role" style="swimlane;fontStyle=1;align=center;verticalAlign=top;childLayout=stackLayout;horizontal=1;startSize=38;horizontalStack=0;resizeParent=1;resizeParentMax=0;resizeLast=0;collapsible=1;marginBottom=0;whiteSpace=wrap;html=1;" vertex="1" parent="WIyWlLk6GJQsqaUBKTNV-1">
          <mxGeometry x="-40" width="160" height="86" as="geometry">
            <mxRectangle x="80" y="20" width="140" height="50" as="alternateBounds" />
          </mxGeometry>
        </mxCell>
        <mxCell id="N-Cw9iXqyluHti3zevqQ-74" value="Student&lt;div&gt;SPSO&lt;/div&gt;" style="text;strokeColor=none;fillColor=none;align=left;verticalAlign=top;spacingLeft=4;spacingRight=4;overflow=hidden;rotatable=0;points=[[0,0.5],[1,0.5]];portConstraint=eastwest;whiteSpace=wrap;html=1;" vertex="1" parent="N-Cw9iXqyluHti3zevqQ-73">
          <mxGeometry y="38" width="160" height="40" as="geometry" />
        </mxCell>
        <mxCell id="N-Cw9iXqyluHti3zevqQ-75" value="" style="line;strokeWidth=1;fillColor=none;align=left;verticalAlign=middle;spacingTop=-1;spacingLeft=3;spacingRight=3;rotatable=0;labelPosition=right;points=[];portConstraint=eastwest;strokeColor=inherit;" vertex="1" parent="N-Cw9iXqyluHti3zevqQ-73">
          <mxGeometry y="78" width="160" height="8" as="geometry" />
        </mxCell>
        <mxCell id="uwkByYollk92JQCde-ek-2" value="Student Main View" style="swimlane;fontStyle=1;align=center;verticalAlign=top;childLayout=stackLayout;horizontal=1;startSize=26;horizontalStack=0;resizeParent=1;resizeParentMax=0;resizeLast=0;collapsible=1;marginBottom=0;whiteSpace=wrap;html=1;" vertex="1" parent="WIyWlLk6GJQsqaUBKTNV-1">
          <mxGeometry x="920" y="320" width="160" height="100" as="geometry" />
        </mxCell>
        <mxCell id="uwkByYollk92JQCde-ek-4" value="" style="line;strokeWidth=1;fillColor=none;align=left;verticalAlign=middle;spacingTop=-1;spacingLeft=3;spacingRight=3;rotatable=0;labelPosition=right;points=[];portConstraint=eastwest;strokeColor=inherit;" vertex="1" parent="uwkByYollk92JQCde-ek-2">
          <mxGeometry y="26" width="160" height="8" as="geometry" />
        </mxCell>
        <mxCell id="uwkByYollk92JQCde-ek-5" value="+ display(): void&lt;div&gt;+ onPrintClick(): void&lt;/div&gt;&lt;div&gt;+ onPurchaseClick(): void&lt;/div&gt;" style="text;strokeColor=none;fillColor=none;align=left;verticalAlign=top;spacingLeft=4;spacingRight=4;overflow=hidden;rotatable=0;points=[[0,0.5],[1,0.5]];portConstraint=eastwest;whiteSpace=wrap;html=1;" vertex="1" parent="uwkByYollk92JQCde-ek-2">
          <mxGeometry y="34" width="160" height="66" as="geometry" />
        </mxCell>
        <mxCell id="uwkByYollk92JQCde-ek-6" value="SPSO Main View" style="swimlane;fontStyle=1;align=center;verticalAlign=top;childLayout=stackLayout;horizontal=1;startSize=26;horizontalStack=0;resizeParent=1;resizeParentMax=0;resizeLast=0;collapsible=1;marginBottom=0;whiteSpace=wrap;html=1;" vertex="1" parent="WIyWlLk6GJQsqaUBKTNV-1">
          <mxGeometry x="-340" y="320" width="180" height="100" as="geometry" />
        </mxCell>
        <mxCell id="uwkByYollk92JQCde-ek-8" value="" style="line;strokeWidth=1;fillColor=none;align=left;verticalAlign=middle;spacingTop=-1;spacingLeft=3;spacingRight=3;rotatable=0;labelPosition=right;points=[];portConstraint=eastwest;strokeColor=inherit;" vertex="1" parent="uwkByYollk92JQCde-ek-6">
          <mxGeometry y="26" width="180" height="8" as="geometry" />
        </mxCell>
        <mxCell id="uwkByYollk92JQCde-ek-9" value="+ display(): void&lt;div&gt;+ onManagePrinterClick(): void&lt;/div&gt;&lt;div&gt;+ onConfigClick(): void&lt;/div&gt;" style="text;strokeColor=none;fillColor=none;align=left;verticalAlign=top;spacingLeft=4;spacingRight=4;overflow=hidden;rotatable=0;points=[[0,0.5],[1,0.5]];portConstraint=eastwest;whiteSpace=wrap;html=1;" vertex="1" parent="uwkByYollk92JQCde-ek-6">
          <mxGeometry y="34" width="180" height="66" as="geometry" />
        </mxCell>
        <mxCell id="uwkByYollk92JQCde-ek-18" value="Student print View" style="swimlane;fontStyle=1;align=center;verticalAlign=top;childLayout=stackLayout;horizontal=1;startSize=40;horizontalStack=0;resizeParent=1;resizeParentMax=0;resizeLast=0;collapsible=1;marginBottom=0;whiteSpace=wrap;html=1;" vertex="1" parent="WIyWlLk6GJQsqaUBKTNV-1">
          <mxGeometry x="320" y="800" width="160" height="160" as="geometry" />
        </mxCell>
        <mxCell id="uwkByYollk92JQCde-ek-19" value="+ field: type" style="text;strokeColor=none;fillColor=none;align=left;verticalAlign=top;spacingLeft=4;spacingRight=4;overflow=hidden;rotatable=0;points=[[0,0.5],[1,0.5]];portConstraint=eastwest;whiteSpace=wrap;html=1;" vertex="1" parent="uwkByYollk92JQCde-ek-18">
          <mxGeometry y="40" width="160" height="40" as="geometry" />
        </mxCell>
        <mxCell id="uwkByYollk92JQCde-ek-20" value="" style="line;strokeWidth=1;fillColor=none;align=left;verticalAlign=middle;spacingTop=-1;spacingLeft=3;spacingRight=3;rotatable=0;labelPosition=right;points=[];portConstraint=eastwest;strokeColor=inherit;" vertex="1" parent="uwkByYollk92JQCde-ek-18">
          <mxGeometry y="80" width="160" height="8" as="geometry" />
        </mxCell>
        <mxCell id="uwkByYollk92JQCde-ek-21" value="+ display(): void&lt;div&gt;- displayNoPage(): void&lt;br&gt;&lt;div&gt;&lt;div&gt;+ onUploadDocClick(): void&lt;/div&gt;&lt;div&gt;+ onPrintClick(): void&lt;/div&gt;&lt;/div&gt;&lt;/div&gt;" style="text;strokeColor=none;fillColor=none;align=left;verticalAlign=top;spacingLeft=4;spacingRight=4;overflow=hidden;rotatable=0;points=[[0,0.5],[1,0.5]];portConstraint=eastwest;whiteSpace=wrap;html=1;" vertex="1" parent="uwkByYollk92JQCde-ek-18">
          <mxGeometry y="88" width="160" height="72" as="geometry" />
        </mxCell>
        <mxCell id="uwkByYollk92JQCde-ek-23" value="Student purchase View" style="swimlane;fontStyle=1;align=center;verticalAlign=top;childLayout=stackLayout;horizontal=1;startSize=26;horizontalStack=0;resizeParent=1;resizeParentMax=0;resizeLast=0;collapsible=1;marginBottom=0;whiteSpace=wrap;html=1;" vertex="1" parent="WIyWlLk6GJQsqaUBKTNV-1">
          <mxGeometry x="1300" y="960" width="160" height="160" as="geometry" />
        </mxCell>
        <mxCell id="uwkByYollk92JQCde-ek-24" value="+ field: type" style="text;strokeColor=none;fillColor=none;align=left;verticalAlign=top;spacingLeft=4;spacingRight=4;overflow=hidden;rotatable=0;points=[[0,0.5],[1,0.5]];portConstraint=eastwest;whiteSpace=wrap;html=1;" vertex="1" parent="uwkByYollk92JQCde-ek-23">
          <mxGeometry y="26" width="160" height="26" as="geometry" />
        </mxCell>
        <mxCell id="uwkByYollk92JQCde-ek-25" value="" style="line;strokeWidth=1;fillColor=none;align=left;verticalAlign=middle;spacingTop=-1;spacingLeft=3;spacingRight=3;rotatable=0;labelPosition=right;points=[];portConstraint=eastwest;strokeColor=inherit;" vertex="1" parent="uwkByYollk92JQCde-ek-23">
          <mxGeometry y="52" width="160" height="8" as="geometry" />
        </mxCell>
        <mxCell id="uwkByYollk92JQCde-ek-26" value="+ display(): void&lt;div&gt;- displayPrice(): void&lt;/div&gt;&lt;div&gt;- displayRemainPage():void&lt;/div&gt;&lt;div&gt;+ onPurchaseClick(): void&lt;/div&gt;" style="text;strokeColor=none;fillColor=none;align=left;verticalAlign=top;spacingLeft=4;spacingRight=4;overflow=hidden;rotatable=0;points=[[0,0.5],[1,0.5]];portConstraint=eastwest;whiteSpace=wrap;html=1;" vertex="1" parent="uwkByYollk92JQCde-ek-23">
          <mxGeometry y="60" width="160" height="100" as="geometry" />
        </mxCell>
        <mxCell id="BizSDs5BfE69kasQaKIG-0" value="Packet" style="swimlane;fontStyle=1;align=center;verticalAlign=top;childLayout=stackLayout;horizontal=1;startSize=30;horizontalStack=0;resizeParent=1;resizeParentMax=0;resizeLast=0;collapsible=1;marginBottom=0;whiteSpace=wrap;html=1;" vertex="1" parent="WIyWlLk6GJQsqaUBKTNV-1">
          <mxGeometry x="920" y="840" width="160" height="126" as="geometry" />
        </mxCell>
        <mxCell id="BizSDs5BfE69kasQaKIG-1" value="+ noPage: int&lt;div&gt;+ pageSize: string&lt;/div&gt;&lt;div&gt;+ fileContent: byte[]&lt;/div&gt;&lt;div&gt;+ fileName: string&lt;/div&gt;" style="text;strokeColor=none;fillColor=none;align=left;verticalAlign=top;spacingLeft=4;spacingRight=4;overflow=hidden;rotatable=0;points=[[0,0.5],[1,0.5]];portConstraint=eastwest;whiteSpace=wrap;html=1;" vertex="1" parent="BizSDs5BfE69kasQaKIG-0">
          <mxGeometry y="30" width="160" height="66" as="geometry" />
        </mxCell>
        <mxCell id="BizSDs5BfE69kasQaKIG-2" value="" style="line;strokeWidth=1;fillColor=none;align=left;verticalAlign=middle;spacingTop=-1;spacingLeft=3;spacingRight=3;rotatable=0;labelPosition=right;points=[];portConstraint=eastwest;strokeColor=inherit;" vertex="1" parent="BizSDs5BfE69kasQaKIG-0">
          <mxGeometry y="96" width="160" height="8" as="geometry" />
        </mxCell>
        <mxCell id="BizSDs5BfE69kasQaKIG-3" value="+ create(): void" style="text;strokeColor=none;fillColor=none;align=left;verticalAlign=top;spacingLeft=4;spacingRight=4;overflow=hidden;rotatable=0;points=[[0,0.5],[1,0.5]];portConstraint=eastwest;whiteSpace=wrap;html=1;" vertex="1" parent="BizSDs5BfE69kasQaKIG-0">
          <mxGeometry y="104" width="160" height="22" as="geometry" />
        </mxCell>
        <mxCell id="BizSDs5BfE69kasQaKIG-4" style="edgeStyle=orthogonalEdgeStyle;rounded=0;orthogonalLoop=1;jettySize=auto;html=1;entryX=1.022;entryY=0.111;entryDx=0;entryDy=0;entryPerimeter=0;endArrow=diamondThin;endFill=1;exitX=0.5;exitY=0;exitDx=0;exitDy=0;" edge="1" parent="WIyWlLk6GJQsqaUBKTNV-1" source="BizSDs5BfE69kasQaKIG-0">
          <mxGeometry relative="1" as="geometry">
            <mxPoint x="1000" y="820" as="sourcePoint" />
            <mxPoint x="760" y="700.022" as="targetPoint" />
            <Array as="points">
              <mxPoint x="1000" y="700" />
            </Array>
          </mxGeometry>
        </mxCell>
        <mxCell id="ZyveVDl4BLU-jRACfWT4-2" value="" style="endArrow=none;html=1;rounded=0;entryX=0.5;entryY=1.008;entryDx=0;entryDy=0;entryPerimeter=0;exitX=0.5;exitY=0;exitDx=0;exitDy=0;" edge="1" parent="WIyWlLk6GJQsqaUBKTNV-1" source="DAk2LymFE52niI233r9b-44" target="DAk2LymFE52niI233r9b-27">
          <mxGeometry width="50" height="50" relative="1" as="geometry">
            <mxPoint x="-210" y="640" as="sourcePoint" />
            <mxPoint x="40" y="430" as="targetPoint" />
          </mxGeometry>
        </mxCell>
        <mxCell id="ZyveVDl4BLU-jRACfWT4-8" value="" style="endArrow=none;html=1;rounded=0;entryX=-0.003;entryY=0.307;entryDx=0;entryDy=0;entryPerimeter=0;" edge="1" parent="WIyWlLk6GJQsqaUBKTNV-1" target="DAk2LymFE52niI233r9b-39">
          <mxGeometry width="50" height="50" relative="1" as="geometry">
            <mxPoint x="480" y="820" as="sourcePoint" />
            <mxPoint x="570" y="840" as="targetPoint" />
          </mxGeometry>
        </mxCell>
      </root>
    </mxGraphModel>
  </diagram>
</mxfile>
